<svg xmlns="http://www.w3.org/2000/svg" version="1.1" xmlns:xlink="http://www.w3.org/1999/xlink" width="1500" height="1500" viewBox="0 0 1500 1500"><rect width="1500" height="1500" x="0" y="0" id="background" stroke="transparent" fill="#000000"></rect><svg xml:space="preserve" width="1000" height="1000" data-version="2" data-id="lg_YSNBwf8PH5BBTeYz8l" viewBox="0 0 571 108" x="250" y="250"><rect width="100%" height="100%" fill="transparent"></rect><path d="M163.6 20.06h24.9v14.25h-6.51v-7.65h-13.55v48.4h8.54v6.6h-23.76v-6.6h7.74v-48.4h-4.84q-10.82.7-15.27 3.69-4.44 3-4.44 8.54 0 2.64 1.14 4.36 1.15 1.71 3.35 1.71 4.13 0 4.13-6.95h7.04q0 5.72-2.64 9.64-2.64 3.91-8.53 3.91-5.9 0-8.72-3.69-2.81-3.7-2.81-8.98 0-8.62 8.18-13.73 8.19-5.1 26.05-5.1"></path><rect width="59.13" height="61.6" x="-29.57" y="-30.8" fill="none" rx="0" ry="0" transform="translate(159.44 51.36)"></rect><path d="M207.07 82.54q-6.07 0-9.5-3.48-3.43-3.47-3.43-9.33 0-5.85 4.57-9.81 4.58-3.96 13.55-3.96h9.6v-4.49q0-8.09-7.75-8.09-6.51 0-11.97 1.58v5.9h-6.16V40.39q3.96-1.68 9.38-2.64 5.41-.97 9.02-.97 7.04 0 11 4 3.96 4.01 3.96 10.69v24.91h7.21v3.69q-3.25 2.03-7.48 2.03-4.22 0-5.72-1.41-1.49-1.41-1.49-4.75-6.6 6.6-14.79 6.6m.79-6.6q7.57 0 14-8.54v-5.63h-9.68q-5.37 0-7.97 2.11-2.59 2.11-2.59 5.33 0 3.21 1.58 4.97 1.58 1.76 4.66 1.76"></path><rect width="42.41" height="45.76" x="-21.2" y="-22.88" fill="none" rx="0" ry="0" transform="translate(215.84 60.16)"></rect><path d="M240.95 68.99h6.16v5.54q3.35 1.32 8.14 1.32 4.8 0 7.31-1.54 2.5-1.54 2.5-3.83t-1.89-3.74q-1.89-1.45-8.97-5.23-7.09-3.79-9.9-6.38-2.82-2.6-2.82-6.82 0-5.46 4.27-8.5 4.27-3.03 11.66-3.03 7.39 0 13.99 3.61v10.47h-6.16v-5.9q-3.87-1.58-8.23-1.58-4.35 0-6.2 1.63-1.85 1.62-1.85 3.56t1.41 3.08q2.37 1.94 8.53 5.02 7.84 4.31 10.74 6.95 2.9 2.64 2.9 6.77 0 5.46-4.66 8.76t-12.98 3.3q-8.32 0-13.95-3.34Z"></path><rect width="31.59" height="45.67" x="-15.79" y="-22.84" fill="none" rx="0" ry="0" transform="translate(257.25 60.12)"></rect><path d="M291.2 75.94h6.78v5.72h-21.04v-5.72h6.78V21.38h-6.78v-5.72h14.26v41.27l5.37-1.94 10.38-11.61h-3.25v-5.72h16.54v5.72h-3.78l-13.91 15.13 13.99 17.87h6.69v3.69q-1.93 1.15-3.43 1.59-1.5.44-4.75.44-3.26 0-5.81-3.35l-12.67-16.63-5.37 1.94Z"></path><rect width="46.29" height="66.44" x="-23.14" y="-33.22" fill="none" rx="0" ry="0" transform="translate(300.58 49.38)"></rect><path d="M338.81 82.54q-6.07 0-9.51-3.48-3.43-3.47-3.43-9.33 0-5.85 4.58-9.81 4.57-3.96 13.55-3.96h9.59v-4.49q0-8.09-7.74-8.09-6.51 0-11.97 1.58v5.9h-6.16V40.39q3.96-1.68 9.37-2.64 5.41-.97 9.02-.97 7.04 0 11 4 3.96 4.01 3.96 10.69v24.91h7.22v3.69q-3.26 2.03-7.48 2.03-4.23 0-5.72-1.41-1.5-1.41-1.5-4.75-6.6 6.6-14.78 6.6m.79-6.6q7.57 0 13.99-8.54v-5.63h-9.68q-5.37 0-7.96 2.11-2.6 2.11-2.6 5.33 0 3.21 1.59 4.97 1.58 1.76 4.66 1.76"></path><rect width="42.42" height="45.76" x="-21.21" y="-22.88" fill="none" rx="0" ry="0" transform="translate(347.58 60.16)"></rect><path d="M385.18 75.94h7.66v5.72h-21.91v-5.72h6.77V43.38h-6.77v-5.72h12.58l1.06 4.66q2.99-1.67 4.84-2.59 1.85-.93 5.32-1.94 3.48-1.01 6.73-1.01 7.57 0 10.43 4.49 2.86 4.48 2.86 12.4v22.71h7.22v3.69q-3.26 2.03-7.53 2.03-4.26 0-5.72-1.45-1.45-1.46-1.45-4.71V53.67q0-5.1-1.32-7.7-1.32-2.59-6.07-2.59t-14.7 5.28Z"></path><rect width="51.04" height="45.32" x="-25.52" y="-22.66" fill="none" rx="0" ry="0" transform="translate(396.95 59.94)"></rect><path d="m431.47 76.07-2.77-3.23q-2.77-3.24-2.77-13.18 0-9.95 5.54-16.41 5.55-6.47 15.58-6.47 10.03 0 15.57 6.47 5.55 6.46 5.55 16.41 0 9.94-5.55 16.41-5.54 6.47-15.57 6.47-10.03 0-15.58-6.47m5.55-28.12-1.81 2.29q-1.8 2.29-1.8 9.42t3.61 11.7q3.6 4.58 10.03 4.58 6.42 0 10.03-4.58 3.61-4.57 3.61-11.7 0-7.13-3.61-11.71-3.61-4.57-10.03-4.57-6.43 0-10.03 4.57"></path><rect width="42.24" height="45.76" x="-21.12" y="-22.88" fill="none" rx="0" ry="0" transform="translate(447.55 60.16)"></rect><path d="M500.02 43.38v-5.72h18.66v5.72h-5.46l-13.9 38.28h-7.74l-14-38.28h-5.45v-5.72h18.65v5.72h-5.54l10.21 29.92 10.21-29.92Z"></path><rect width="46.55" height="44" x="-23.27" y="-22" fill="none" rx="0" ry="0" transform="translate(495.9 60.16)"></rect><path d="M535.14 82.54q-6.08 0-9.51-3.48-3.43-3.47-3.43-9.33 0-5.85 4.58-9.81 4.57-3.96 13.55-3.96h9.59v-4.49q0-8.09-7.74-8.09-6.52 0-11.97 1.58v5.9h-6.16V40.39q3.96-1.68 9.37-2.64 5.41-.97 9.02-.97 7.04 0 11 4 3.96 4.01 3.96 10.69v24.91h7.22v3.69q-3.26 2.03-7.48 2.03-4.23 0-5.72-1.41-1.5-1.41-1.5-4.75-6.6 6.6-14.78 6.6m.79-6.6q7.57 0 13.99-8.54v-5.63h-9.68q-5.37 0-7.96 2.11-2.6 2.11-2.6 5.33 0 3.21 1.58 4.97 1.59 1.76 4.67 1.76"></path><rect width="42.42" height="45.76" x="-21.21" y="-22.88" fill="none" rx="0" ry="0" transform="translate(543.91 60.16)"></rect><path fill="#5a5a5a" d="M47.167 104.39c-23.078 0-41.786-18.709-41.786-41.787v-9.832c0-20.362 16.508-36.87 36.87-36.87s36.87 16.508 36.87 36.87c0 14.932-12.106 27.038-27.038 27.038S25.045 67.703 25.045 52.771a17.206 17.206 0 1 1 34.412 0 2.458 2.458 0 0 1-4.916 0 12.29 12.29 0 0 0-24.58 0 22.122 22.122 0 1 0 44.244 0c0-17.648-14.306-31.954-31.954-31.954S10.297 35.123 10.297 52.771v9.832c0 20.362 16.508 36.87 36.87 36.87a2.458 2.458 0 1 1 0 4.916"></path><path fill="#5a5a5a" d="M52.083 89.641c-20.362 0-36.87-16.508-36.87-36.87 0-14.932 12.106-27.038 27.038-27.038S69.289 37.84 69.289 52.771a17.206 17.206 0 1 1-34.412 0 2.458 2.458 0 0 1 4.916 0 12.29 12.29 0 0 0 24.58 0 22.122 22.122 0 1 0-44.244 0c0 17.649 14.306 31.954 31.954 31.954S84.037 70.42 84.037 52.771V42.94c0-20.362-16.508-36.87-36.87-36.87a2.458 2.458 0 0 1 0-4.916c23.078 0 41.786 18.708 41.786 41.786v9.832c0 20.362-16.508 36.87-36.87 36.87m24.58 14.748H59.457a2.458 2.458 0 1 1 0-4.916h17.206a2.458 2.458 0 1 1 0 4.916M34.877 6.07H17.671a2.458 2.458 0 0 1 0-4.916h17.206a2.458 2.458 0 0 1 0 4.916"></path></svg></svg>